{"title":"Fakta Ladh Mhana (2011) Marathi Xvid MP3 1 CD DVDRipMDG @Mastito","uid":6765792,"size":735500843,"categoryP":"video","categoryS":"movies","magnet":"?xt=urn:btih:b9e37f1192f4ac4506e2485c82be3df179e2ec9d&amp;dn=Fakta+Ladh+Mhana+%282011%29+Marathi+Xvid+MP3+1+CD+DVDRipMDG+%40Mastito&amp;tr=udp%3A%2F%2Ftracker.openbittorrent.com%3A80&amp;tr=udp%3A%2F%2Fopen.demonii.com%3A1337&amp;tr=udp%3A%2F%2Ftracker.coppersurfer.tk%3A6969&amp;tr=udp%3A%2F%2Fexodus.desync.com%3A6969","seeders":0,"leechers":1,"uploader":"amanrulz","files":23,"time":1319382262,"description":"mastitorrents.com\n &lt;a href=&quot;\nhttp://mastitorrents.com/forums/index.php&quot; rel=&quot;nofollow&quot; target=&quot;_NEW&quot;&gt;\nhttp://mastitorrents.com/forums/index.php&lt;/a&gt;\n\nGeneral\nComplete name : Fakta Ladh Mhana [2011] - Xvid - MP3 - DVDRiP (www.mastitorrents.com)\nFormat : AVI\nFormat/Info : Audio Video Interleave\nFile size : 692 MiB\nDuration : 2h 24mn\nOverall bit rate : 668 Kbps\n\nVideo\nID : 0\nFormat : MPEG-4 Visual\nFormat profile : Advanced Simple@L5\nFormat settings, BVOP : 1\nFormat settings, QPel : No\nFormat settings, GMC : No warppoints\nFormat settings, Matrix : Default (H.263)\nCodec ID : XVID\nCodec ID/Hint : XviD\nDuration : 2h 24mn\nBit rate : 598 Kbps\nWidth : 608 pixels\nHeight : 256 pixels\nDisplay aspect ratio : 2.40:1\nFrame rate : 23.976 fps\nColor space : YUV\nChroma subsampling : 4:2:0\nBit depth : 8 bits\nScan type : Progressive\nCompression mode : Lossy\nBits/(Pixel*Frame) : 0.160\nStream size : 620 MiB (90%)\nWriting library : XviD 1.2.1 (UTC 2008-12-04)\n\nAudio\nID : 1\nFormat : MPEG Audio\nFormat version : Version 2\nFormat profile : Layer 3\nMode : Joint stereo\nMode extension : MS Stereo\nCodec ID : 55\nCodec ID/Hint : MP3\nDuration : 2h 24mn\nBit rate mode : Constant\nBit rate : 64.0 Kbps\nChannel(s) : 2 channels\nSampling rate : 24.0 KHz\nCompression mode : Lossy\nStream size : 66.3 MiB (10%)\nAlignment : Aligned on interleaves\nInterleave, duration : 167 ms (4.00 video frames)\nInterleave, preload duration : 216 ms\nTitle : Fakta Ladh Mhana T81 2_0ch 224Kbps DELAY 0ms\nWriting library : LAME3.98r\nEncoding settings : -m j -V 4 -q 2 -lowpass 11 -b 64","torrent":{"xt":"urn:btih:b9e37f1192f4ac4506e2485c82be3df179e2ec9d","amp;dn":"Fakta+Ladh+Mhana+%282011%29+Marathi+Xvid+MP3+1+CD+DVDRipMDG+%40Mastito","amp;tr":["udp%3A%2F%2Ftracker.openbittorrent.com%3A80","udp%3A%2F%2Fopen.demonii.com%3A1337","udp%3A%2F%2Ftracker.coppersurfer.tk%3A6969","udp%3A%2F%2Fexodus.desync.com%3A6969"],"infoHash":"b9e37f1192f4ac4506e2485c82be3df179e2ec9d","infoHashBuffer":{"type":"Buffer","data":[185,227,127,17,146,244,172,69,6,226,72,92,130,190,61,241,121,226,236,157]},"announce":[],"urlList":[]}}